<?xml version="1.0" standalone="no"?>
<!DOCTYPE svg PUBLIC "-//W3C//DTD SVG 20010904//EN"
 "http://www.w3.org/TR/2001/REC-SVG-20010904/DTD/svg10.dtd">
<svg version="1.0" xmlns="http://www.w3.org/2000/svg"
 width="512.000000pt" height="512.000000pt" viewBox="0 0 512.000000 512.000000"
 preserveAspectRatio="xMidYMid meet">
<metadata>
Created by potrace 1.11, written by Peter Selinger 2001-2013
</metadata>
<g transform="translate(0.000000,512.000000) scale(0.100000,-0.100000)"
fill="#000000" stroke="none">
<path d="M2398 5115 c-2 -1 -39 -5 -83 -9 -44 -4 -89 -9 -100 -11 -11 -2 -38
-6 -60 -9 -259 -32 -615 -159 -885 -316 -228 -131 -473 -335 -640 -531 -30
-35 -59 -69 -65 -75 -5 -6 -19 -23 -30 -38 -11 -16 -34 -47 -51 -70 -54 -73
-121 -179 -173 -274 -55 -102 -151 -320 -151 -343 0 -8 -4 -19 -9 -24 -10 -10
-77 -234 -87 -290 -3 -16 -9 -48 -14 -70 -41 -184 -57 -495 -37 -725 7 -86 10
-107 22 -182 4 -24 9 -54 12 -68 11 -69 57 -237 92 -340 280 -824 949 -1444
1793 -1661 88 -22 87 -22 158 -35 25 -4 47 -8 50 -9 3 -1 30 -4 60 -8 30 -4
78 -10 105 -14 67 -8 413 -9 495 -1 483 50 931 225 1305 509 99 75 115 88 209
177 358 336 611 772 732 1257 99 401 93 881 -16 1271 -12 41 -23 83 -25 92
-19 96 -169 424 -267 583 -106 172 -301 417 -327 411 -7 -1 -10 1 -7 6 7 12
-147 161 -249 241 -163 130 -287 206 -490 305 -142 69 -214 97 -400 155 -89
28 -250 62 -360 76 -28 3 -64 8 -80 11 -34 5 -422 14 -427 9z"/>
</g>
</svg>
